<svg xmlns="http://www.w3.org/2000/svg" width="107" height="107" viewBox="0 0 107 107">
  <g id="Group_60719" data-name="Group 60719" transform="translate(-90 -6506)">
    <g id="Group_85" data-name="Group 85" transform="translate(90 6506)" fill="#fff">
      <path d="M 53.5 106.5 C 46.34482955932617 106.5 39.4039421081543 105.0987548828125 32.87015533447266 102.3351974487305 C 26.55902862548828 99.66581726074219 20.89092826843262 95.84424591064453 16.02334213256836 90.97665405273438 C 11.15575695037842 86.10906982421875 7.334185600280762 80.44097137451172 4.66480016708374 74.12984466552734 C 1.901242852210999 67.59605407714844 0.5 60.65517044067383 0.5 53.5 C 0.5 46.34482955932617 1.901242852210999 39.4039421081543 4.66480016708374 32.87015533447266 C 7.334185600280762 26.55902862548828 11.15575695037842 20.89092826843262 16.02334213256836 16.02334213256836 C 20.89092826843262 11.15575695037842 26.55902862548828 7.334185600280762 32.87015533447266 4.66480016708374 C 39.4039421081543 1.901242852210999 46.34482955932617 0.5 53.5 0.5 C 60.65517044067383 0.5 67.59605407714844 1.901242852210999 74.12984466552734 4.66480016708374 C 80.44097137451172 7.334185600280762 86.10906982421875 11.15575695037842 90.97665405273438 16.02334213256836 C 95.84424591064453 20.89092826843262 99.66581726074219 26.55902862548828 102.3351974487305 32.87015533447266 C 105.0987548828125 39.4039421081543 106.5 46.34482955932617 106.5 53.5 C 106.5 60.65517044067383 105.0987548828125 67.59605407714844 102.3351974487305 74.12984466552734 C 99.66581726074219 80.44097137451172 95.84424591064453 86.10906982421875 90.97665405273438 90.97665405273438 C 86.10906982421875 95.84424591064453 80.44097137451172 99.66581726074219 74.12984466552734 102.3351974487305 C 67.59605407714844 105.0987548828125 60.65517044067383 106.5 53.5 106.5 Z" stroke="none"/>
      <path d="M 53.5 1 C 46.41210174560547 1 39.53675842285156 2.387954711914062 33.06494140625 5.125297546386719 C 26.81340026855469 7.769485473632812 21.19873046875 11.55506896972656 16.37689971923828 16.37689971923828 C 11.55506896972656 21.19873046875 7.769485473632812 26.81340026855469 5.125297546386719 33.06494140625 C 2.387954711914062 39.53675842285156 1 46.41210174560547 1 53.5 C 1 60.58789825439453 2.387954711914062 67.46324157714844 5.125297546386719 73.93505859375 C 7.769485473632812 80.18659973144531 11.55506896972656 85.80126953125 16.37689971923828 90.62310028076172 C 21.19873046875 95.44493103027344 26.81340026855469 99.23051452636719 33.06494140625 101.8747024536133 C 39.53675842285156 104.6120452880859 46.41210174560547 106 53.5 106 C 60.58789825439453 106 67.46324157714844 104.6120452880859 73.93505859375 101.8747024536133 C 80.18659973144531 99.23051452636719 85.80126953125 95.44493103027344 90.62310028076172 90.62310028076172 C 95.44493103027344 85.80126953125 99.23051452636719 80.18659973144531 101.8747024536133 73.93505859375 C 104.6120452880859 67.46324157714844 106 60.58789825439453 106 53.5 C 106 46.41210174560547 104.6120452880859 39.53675842285156 101.8747024536133 33.06494140625 C 99.23051452636719 26.81340026855469 95.44493103027344 21.19873046875 90.62310028076172 16.37689971923828 C 85.80126953125 11.55506896972656 80.18659973144531 7.769485473632812 73.93505859375 5.125297546386719 C 67.46324157714844 2.387954711914062 60.58789825439453 1 53.5 1 M 53.5 0 C 83.04722595214844 0 107 23.95277404785156 107 53.5 C 107 83.04722595214844 83.04722595214844 107 53.5 107 C 23.95277404785156 107 0 83.04722595214844 0 53.5 C 0 23.95277404785156 23.95277404785156 0 53.5 0 Z" stroke="none" fill="#d2d2d2"/>
    </g>
    <g id="logo_dark" transform="translate(121 6537)">
      <path id="Path_73797" data-name="Path 73797" d="M0,25.986H15.242V10.667H0Z" transform="translate(0 4.652)" fill="#00004c"/>
      <path id="Path_73798" data-name="Path 73798" d="M0,36.652H15.242V21.333H0Z" transform="translate(0 9.305)" fill="#0f0f7b"/>
      <path id="Path_73799" data-name="Path 73799" d="M0,15.319H15.242V0H0Z" transform="translate(0)" fill="#0f0f7b"/>
      <path id="Path_73800" data-name="Path 73800" d="M36.467,10.666H21.226V25.986H36.467Z" transform="translate(9.257 4.652)" fill="#dadaff"/>
      <path id="Path_73801" data-name="Path 73801" d="M10.613,36.652H25.854V21.333H10.613Z" transform="translate(4.629 9.305)" fill="#001dc6"/>
      <path id="Path_73802" data-name="Path 73802" d="M10.613,15.319H25.854V0H10.613Z" transform="translate(4.629)" fill="#001dc6"/>
      <path id="Path_73803" data-name="Path 73803" d="M21.226,36.652H36.468V21.333H21.226Z" transform="translate(9.258 9.305)" fill="#4e51ff"/>
      <path id="Path_73804" data-name="Path 73804" d="M21.226,15.319H36.468V0H21.226Z" transform="translate(9.258)" fill="#4e51ff"/>
      <path id="Path_73805" data-name="Path 73805" d="M10.613,25.986H25.854V10.667H10.613Z" transform="translate(4.629 4.652)" fill="#4e51ff"/>
    </g>
  </g>
</svg>
